<svg width="17" height="23" viewBox="0 0 17 23" fill="none" xmlns="http://www.w3.org/2000/svg">
<path d="M4.25 5.30769C4.25 5.07308 4.33955 4.84807 4.49896 4.68217C4.65837 4.51628 4.87457 4.42308 5.1 4.42308H11.9C12.1254 4.42308 12.3416 4.51628 12.501 4.68217C12.6604 4.84807 12.75 5.07308 12.75 5.30769C12.75 5.54231 12.6604 5.76731 12.501 5.93321C12.3416 6.09911 12.1254 6.19231 11.9 6.19231H5.1C4.87457 6.19231 4.65837 6.09911 4.49896 5.93321C4.33955 5.76731 4.25 5.54231 4.25 5.30769ZM5.1 9.73077H11.9C12.1254 9.73077 12.3416 9.63757 12.501 9.47167C12.6604 9.30577 12.75 9.08077 12.75 8.84615C12.75 8.61154 12.6604 8.38653 12.501 8.22064C12.3416 8.05474 12.1254 7.96154 11.9 7.96154H5.1C4.87457 7.96154 4.65837 8.05474 4.49896 8.22064C4.33955 8.38653 4.25 8.61154 4.25 8.84615C4.25 9.08077 4.33955 9.30577 4.49896 9.47167C4.65837 9.63757 4.87457 9.73077 5.1 9.73077ZM17 1.76923V21.2308C17 21.7 16.8209 22.15 16.5021 22.4818C16.1833 22.8136 15.7509 23 15.3 23H1.7C1.24913 23 0.81673 22.8136 0.497918 22.4818C0.179107 22.15 0 21.7 0 21.2308V1.76923C0 1.3 0.179107 0.849991 0.497918 0.518196C0.81673 0.1864 1.24913 0 1.7 0H15.3C15.7509 0 16.1833 0.1864 16.5021 0.518196C16.8209 0.849991 17 1.3 17 1.76923ZM15.3 1.76923H1.7V21.2308H15.3V1.76923ZM8.5 15.9231C8.24783 15.9231 8.00132 16.0009 7.79165 16.1467C7.58198 16.2925 7.41856 16.4997 7.32205 16.7422C7.22555 16.9847 7.2003 17.2515 7.2495 17.5089C7.2987 17.7663 7.42013 18.0027 7.59844 18.1883C7.77675 18.3738 8.00393 18.5002 8.25126 18.5514C8.49859 18.6026 8.75495 18.5763 8.98792 18.4759C9.2209 18.3755 9.42002 18.2054 9.56012 17.9872C9.70022 17.769 9.775 17.5124 9.775 17.25C9.775 16.8981 9.64067 16.5606 9.40156 16.3117C9.16245 16.0629 8.83815 15.9231 8.5 15.9231Z" fill="#454545"/>
</svg>
