<svg width="34" height="23" viewBox="0 0 34 23" fill="none" xmlns="http://www.w3.org/2000/svg">
<path d="M30.5943 20.4045V1.36563C30.5943 0.614931 30.035 0 29.3765 0H4.62349C3.96501 0 3.40566 0.606945 3.40566 1.36563V20.4045H0C0 21.1951 0.700958 21.9059 1.33819 22.2174C2.10995 22.5847 3.40566 23 4.82174 23H29.1783C30.5943 23 31.883 22.6406 32.5981 22.2972C33.2707 21.9778 34 21.2271 34 20.4045H30.5943ZM17 0.638889C17.1558 0.638889 17.2832 0.782639 17.2832 0.958333C17.2832 1.13403 17.1558 1.27778 17 1.27778C16.8442 1.27778 16.7168 1.13403 16.7168 0.958333C16.7168 0.782639 16.8442 0.638889 17 0.638889ZM4.68013 1.93264H29.3199C29.3978 1.93264 29.4615 2.00451 29.4615 2.09236V18.967C29.4615 19.0549 29.3978 19.1267 29.3199 19.1267H4.68013C4.60225 19.1267 4.53853 19.0549 4.53853 18.967V2.09236C4.53853 1.99653 4.60225 1.93264 4.68013 1.93264ZM19.995 21.0434H14.005C13.6368 21.0434 13.3182 20.5642 13.3182 20.4444H20.6818C20.6818 20.5642 20.4694 21.0434 19.995 21.0434Z" fill="#454545"/>
</svg>
