<svg width="17" height="23" viewBox="0 0 17 23" fill="none" xmlns="http://www.w3.org/2000/svg">
<path d="M15.3 0H1.7C1.24913 0 0.81673 0.1864 0.497918 0.518196C0.179107 0.849991 0 1.3 0 1.76923V21.2308C0 21.7 0.179107 22.15 0.497918 22.4818C0.81673 22.8136 1.24913 23 1.7 23H15.3C15.7509 23 16.1833 22.8136 16.5021 22.4818C16.8209 22.15 17 21.7 17 21.2308V1.76923C17 1.3 16.8209 0.849991 16.5021 0.518196C16.1833 0.1864 15.7509 0 15.3 0ZM15.3 21.2308H1.7V1.76923H15.3V21.2308ZM7.225 5.75C7.225 5.48756 7.29978 5.23101 7.43988 5.0128C7.57997 4.79459 7.7791 4.62451 8.01208 4.52408C8.24505 4.42365 8.50141 4.39737 8.74874 4.44857C8.99607 4.49977 9.22325 4.62615 9.40156 4.81172C9.57987 4.9973 9.70131 5.23373 9.7505 5.49113C9.7997 5.74853 9.77445 6.01533 9.67795 6.25779C9.58144 6.50025 9.41802 6.70749 9.20835 6.8533C8.99868 6.9991 8.75217 7.07692 8.5 7.07692C8.16185 7.07692 7.83755 6.93712 7.59844 6.68828C7.35933 6.43943 7.225 6.10192 7.225 5.75ZM8.5 18.5769C9.34057 18.5769 10.1623 18.3175 10.8612 17.8315C11.5601 17.3455 12.1048 16.6547 12.4265 15.8465C12.7482 15.0383 12.8323 14.1489 12.6683 13.2909C12.5044 12.433 12.0996 11.6448 11.5052 11.0263C10.9108 10.4077 10.1536 9.98642 9.32913 9.81576C8.50472 9.64509 7.65018 9.73268 6.8736 10.0675C6.09701 10.4022 5.43325 10.9691 4.96625 11.6965C4.49926 12.4239 4.25 13.279 4.25 14.1538C4.25 14.7347 4.35993 15.3099 4.57351 15.8465C4.78709 16.3831 5.10015 16.8707 5.4948 17.2814C6.29183 18.1109 7.37283 18.5769 8.5 18.5769ZM8.5 11.5C9.00434 11.5 9.49736 11.6556 9.9167 11.9473C10.336 12.2389 10.6629 12.6533 10.8559 13.1383C11.0489 13.6232 11.0994 14.1568 11.001 14.6716C10.9026 15.1864 10.6597 15.6593 10.3031 16.0304C9.9465 16.4015 9.49213 16.6543 8.99748 16.7567C8.50283 16.8591 7.99011 16.8065 7.52416 16.6057C7.05821 16.4048 6.65995 16.0647 6.37975 15.6282C6.09956 15.1918 5.95 14.6787 5.95 14.1538C5.95 13.45 6.21866 12.775 6.69688 12.2773C7.1751 11.7796 7.8237 11.5 8.5 11.5Z" fill="#454545"/>
</svg>
