<svg width="13" height="23" viewBox="0 0 13 23" fill="none" xmlns="http://www.w3.org/2000/svg">
<path d="M10.5 0H2.5C1.83696 0 1.20107 0.275364 0.732233 0.765516C0.263392 1.25567 0 1.92046 0 2.61364V20.3864C0 21.0795 0.263392 21.7443 0.732233 22.2345C1.20107 22.7246 1.83696 23 2.5 23H10.5C11.163 23 11.7989 22.7246 12.2678 22.2345C12.7366 21.7443 13 21.0795 13 20.3864V2.61364C13 1.92046 12.7366 1.25567 12.2678 0.765516C11.7989 0.275364 11.163 0 10.5 0ZM6.5 21.9545C5.67 21.9545 5 21.2541 5 20.3864C5 19.5186 5.67 18.8182 6.5 18.8182C7.33 18.8182 8 19.5186 8 20.3864C8 21.2541 7.33 21.9545 6.5 21.9545ZM11 17.7727H2V3.13636H11V17.7727Z" fill="#454545"/>
</svg>
