<svg width="29" height="21" viewBox="0 0 29 21" fill="none" xmlns="http://www.w3.org/2000/svg">
<path d="M0 1.575V19.425C0 20.2978 0.692634 21 1.55357 21H27.4464C28.3074 21 29 20.2978 29 19.425V1.575C29 0.702187 28.3074 0 27.4464 0H1.55357C0.692634 0 0 0.702187 0 1.575ZM24.8571 2.1V18.9H3.10714V2.1H24.8571ZM27.8348 10.5C27.8348 11.0053 27.4141 11.4187 26.9221 11.4187C26.4366 11.4187 26.0158 11.0119 26.0158 10.5C26.0158 9.99469 26.4301 9.57469 26.9221 9.57469C27.4141 9.58125 27.8348 9.99469 27.8348 10.5Z" fill="#454545"/>
</svg>
