<svg width="17" height="16" viewBox="0 0 17 16" fill="none" xmlns="http://www.w3.org/2000/svg">
<path d="M16.4464 11.3459L11.2357 1.95619C10.5355 0.692817 9.56658 0 8.5 0C7.43342 0 6.46454 0.692817 5.76435 1.95619L0.553578 11.3459C-0.10591 12.5441 -0.179186 13.6933 0.350033 14.5981C0.879251 15.5028 1.9214 16 3.28923 16H13.7108C15.0786 16 16.1207 15.5028 16.65 14.5981C17.1792 13.6933 17.1059 12.5359 16.4464 11.3459ZM7.88936 5.70555C7.88936 5.37137 8.16618 5.09424 8.5 5.09424C8.83381 5.09424 9.11064 5.37137 9.11064 5.70555V9.78095C9.11064 10.1151 8.83381 10.3923 8.5 10.3923C8.16618 10.3923 7.88936 10.1151 7.88936 9.78095V5.70555ZM9.07807 12.8049C9.03736 12.8375 8.99665 12.8701 8.95594 12.9027C8.90709 12.9353 8.85824 12.9598 8.80939 12.9761C8.76054 13.0005 8.71169 13.0168 8.65469 13.025C8.60584 13.0331 8.54885 13.0413 8.5 13.0413C8.45115 13.0413 8.39416 13.0331 8.33716 13.025C8.28831 13.0168 8.23946 13.0005 8.19061 12.9761C8.14176 12.9598 8.09291 12.9353 8.04406 12.9027C8.00335 12.8701 7.96264 12.8375 7.92193 12.8049C7.77538 12.65 7.68582 12.4381 7.68582 12.2262C7.68582 12.0143 7.77538 11.8023 7.92193 11.6475C7.96264 11.6149 8.00335 11.5823 8.04406 11.5497C8.09291 11.5171 8.14176 11.4926 8.19061 11.4763C8.23946 11.4519 8.28831 11.4356 8.33716 11.4274C8.44301 11.403 8.55699 11.403 8.65469 11.4274C8.71169 11.4356 8.76054 11.4519 8.80939 11.4763C8.85824 11.4926 8.90709 11.5171 8.95594 11.5497C8.99665 11.5823 9.03736 11.6149 9.07807 11.6475C9.22462 11.8023 9.31418 12.0143 9.31418 12.2262C9.31418 12.4381 9.22462 12.65 9.07807 12.8049Z" fill="#DB371F"/>
</svg>
