<svg width="18" height="11" viewBox="0 0 18 11" fill="none" xmlns="http://www.w3.org/2000/svg">
<path d="M9.00068 7.7C10.3262 7.7 11.4007 6.71503 11.4007 5.5C11.4007 4.28497 10.3262 3.3 9.00068 3.3C7.67521 3.3 6.6007 4.28497 6.6007 5.5C6.6007 6.71503 7.67521 7.7 9.00068 7.7Z" fill="#181728"/>
<path d="M17.8071 4.90188C16.8149 3.49525 15.5275 2.30038 14.0845 1.44616C12.4882 0.500157 10.7257 0 8.98794 0C7.39345 0 5.82558 0.417656 4.32784 1.24128C2.80048 2.08106 1.41674 3.30791 0.214871 4.88744C0.0791917 5.06595 0.00446747 5.2774 0.000194111 5.49494C-0.00407925 5.71247 0.0622912 5.92625 0.190872 6.10913C1.18124 7.52984 2.45586 8.72644 3.87635 9.56897C5.47571 10.5188 7.19695 11 8.98794 11C10.7395 11 12.5058 10.504 14.0954 9.56588C15.5376 8.71441 16.8224 7.51506 17.8109 6.09675C17.935 5.91813 18.0007 5.7106 18 5.49881C17.9993 5.28701 17.9324 5.07984 17.8071 4.90188ZM9.00068 8.8C8.28868 8.8 7.59266 8.60646 7.00065 8.24385C6.40863 7.88124 5.94722 7.36585 5.67474 6.76286C5.40227 6.15986 5.33098 5.49634 5.46988 4.8562C5.60879 4.21606 5.95165 3.62806 6.45512 3.16655C6.95858 2.70503 7.60004 2.39074 8.29836 2.26341C8.99669 2.13608 9.72053 2.20143 10.3783 2.4512C11.0361 2.70097 11.5984 3.12394 11.994 3.66662C12.3895 4.2093 12.6007 4.84732 12.6007 5.5C12.5996 6.37491 12.2199 7.21369 11.545 7.83235C10.8702 8.451 9.95512 8.799 9.00068 8.8Z" fill="#181728"/>
</svg>
