<svg width="24" height="25" viewBox="0 0 24 25" fill="none" xmlns="http://www.w3.org/2000/svg">
<path d="M22.9986 20.7829C22.9867 21.226 22.89 21.662 22.7142 22.0652C22.5383 22.4684 22.287 22.8305 21.9751 23.1299C21.6632 23.4293 21.297 23.66 20.8984 23.8083C20.4997 23.9566 20.0767 24.0195 19.6545 23.9932C17.0161 24.0086 14.3766 23.9932 11.7383 23.9932C11.5758 23.9932 11.4199 23.9255 11.305 23.8051C11.1901 23.6847 11.1256 23.5214 11.1256 23.3511C11.1256 23.1808 11.1901 23.0175 11.305 22.8971C11.4199 22.7767 11.5758 22.709 11.7383 22.709C14.4342 22.709 17.1301 22.7501 19.826 22.709C21.1825 22.6885 21.7732 21.6201 21.7732 20.3488V4.34356C21.7825 3.93943 21.6737 3.54198 21.4615 3.20439C21.2493 2.86681 20.9438 2.60521 20.5858 2.45462C20.1627 2.33374 19.7225 2.29244 19.2856 2.33263H11.7383C11.5758 2.33263 11.4199 2.26499 11.305 2.14458C11.1901 2.02417 11.1256 1.86086 11.1256 1.69057C11.1256 1.52029 11.1901 1.35698 11.305 1.23657C11.4199 1.11616 11.5758 1.04851 11.7383 1.04851C14.4648 1.04851 17.2098 0.939361 19.9338 1.04851C20.3509 1.05939 20.7617 1.15711 21.1423 1.33599C21.5229 1.51487 21.8658 1.77132 22.1509 2.09042C22.436 2.40951 22.6577 2.78487 22.803 3.19462C22.9483 3.60438 23.0144 4.04034 22.9974 4.47711L22.9986 20.7829Z" fill="#454545"/>
<path d="M16.6877 12.978C16.7911 12.8722 16.8517 12.7287 16.8568 12.5773C16.8605 12.5596 16.863 12.5415 16.8642 12.5234C16.8629 12.5057 16.8605 12.4881 16.8568 12.4708C16.8525 12.3188 16.7918 12.1746 16.6877 12.0688L12.1917 7.35867C12.0761 7.24172 11.9214 7.177 11.7607 7.17846C11.6001 7.17993 11.4464 7.24745 11.3328 7.36649C11.2192 7.48554 11.1548 7.64657 11.1534 7.81492C11.152 7.98327 11.2137 8.14545 11.3253 8.26654L14.7761 11.8813H1.61271C1.45021 11.8813 1.29436 11.949 1.17946 12.0694C1.06455 12.1898 1 12.3531 1 12.5234C1 12.6937 1.06455 12.857 1.17946 12.9774C1.29436 13.0978 1.45021 13.1655 1.61271 13.1655H14.7761L11.3253 16.7803C11.2137 16.9013 11.152 17.0635 11.1534 17.2319C11.1548 17.4002 11.2192 17.5613 11.3328 17.6803C11.4464 17.7993 11.6001 17.8669 11.7607 17.8683C11.9214 17.8698 12.0761 17.8051 12.1917 17.6881L16.6877 12.978Z" fill="#454545"/>
<path d="M22.9986 20.7829C22.9867 21.226 22.89 21.662 22.7142 22.0652C22.5383 22.4684 22.287 22.8305 21.9751 23.1299C21.6632 23.4293 21.297 23.66 20.8984 23.8083C20.4997 23.9566 20.0767 24.0195 19.6545 23.9932C17.0161 24.0086 14.3766 23.9932 11.7383 23.9932C11.5758 23.9932 11.4199 23.9255 11.305 23.8051C11.1901 23.6847 11.1256 23.5214 11.1256 23.3511C11.1256 23.1808 11.1901 23.0175 11.305 22.8971C11.4199 22.7767 11.5758 22.709 11.7383 22.709C14.4342 22.709 17.1301 22.7501 19.826 22.709C21.1825 22.6885 21.7732 21.6201 21.7732 20.3488V4.34356C21.7825 3.93943 21.6737 3.54198 21.4615 3.20439C21.2493 2.86681 20.9438 2.60521 20.5858 2.45462C20.1627 2.33374 19.7225 2.29244 19.2856 2.33263H11.7383C11.5758 2.33263 11.4199 2.26499 11.305 2.14458C11.1901 2.02417 11.1256 1.86086 11.1256 1.69057C11.1256 1.52029 11.1901 1.35698 11.305 1.23657C11.4199 1.11616 11.5758 1.04851 11.7383 1.04851C14.4648 1.04851 17.2098 0.939361 19.9338 1.04851C20.3509 1.05939 20.7617 1.15711 21.1423 1.33599C21.5229 1.51487 21.8658 1.77132 22.1509 2.09042C22.436 2.40951 22.6577 2.78487 22.803 3.19462C22.9483 3.60438 23.0144 4.04034 22.9974 4.47711L22.9986 20.7829Z" stroke="#454545" stroke-width="0.5"/>
<path d="M16.6877 12.978C16.7911 12.8722 16.8517 12.7287 16.8568 12.5773C16.8605 12.5596 16.863 12.5415 16.8642 12.5234C16.8629 12.5057 16.8605 12.4881 16.8568 12.4708C16.8525 12.3188 16.7918 12.1746 16.6877 12.0688L12.1917 7.35867C12.0761 7.24172 11.9214 7.177 11.7607 7.17846C11.6001 7.17993 11.4464 7.24745 11.3328 7.36649C11.2192 7.48554 11.1548 7.64657 11.1534 7.81492C11.152 7.98327 11.2137 8.14545 11.3253 8.26654L14.7761 11.8813H1.61271C1.45021 11.8813 1.29436 11.949 1.17946 12.0694C1.06455 12.1898 1 12.3531 1 12.5234C1 12.6937 1.06455 12.857 1.17946 12.9774C1.29436 13.0978 1.45021 13.1655 1.61271 13.1655H14.7761L11.3253 16.7803C11.2137 16.9013 11.152 17.0635 11.1534 17.2319C11.1548 17.4002 11.2192 17.5613 11.3328 17.6803C11.4464 17.7993 11.6001 17.8669 11.7607 17.8683C11.9214 17.8698 12.0761 17.8051 12.1917 17.6881L16.6877 12.978Z" stroke="#454545" stroke-width="0.5"/>
</svg>
