<svg width="28" height="24" viewBox="0 0 28 24" fill="none" xmlns="http://www.w3.org/2000/svg">
<path d="M23.6078 9.76744C23.6078 9.98948 23.5211 10.2024 23.3666 10.3594C23.2122 10.5164 23.0027 10.6047 22.7843 10.6047H17.2941C17.0757 10.6047 16.8662 10.5164 16.7118 10.3594C16.5574 10.2024 16.4706 9.98948 16.4706 9.76744C16.4706 9.5454 16.5574 9.33245 16.7118 9.17545C16.8662 9.01844 17.0757 8.93023 17.2941 8.93023H22.7843C23.0027 8.93023 23.2122 9.01844 23.3666 9.17545C23.5211 9.33245 23.6078 9.5454 23.6078 9.76744ZM22.7843 13.3953H17.2941C17.0757 13.3953 16.8662 13.4836 16.7118 13.6406C16.5574 13.7976 16.4706 14.0105 16.4706 14.2326C16.4706 14.4546 16.5574 14.6675 16.7118 14.8246C16.8662 14.9816 17.0757 15.0698 17.2941 15.0698H22.7843C23.0027 15.0698 23.2122 14.9816 23.3666 14.8246C23.5211 14.6675 23.6078 14.4546 23.6078 14.2326C23.6078 14.0105 23.5211 13.7976 23.3666 13.6406C23.2122 13.4836 23.0027 13.3953 22.7843 13.3953ZM28 1.95349V22.0465C28 22.5646 27.7976 23.0615 27.4372 23.4278C27.0768 23.7942 26.5881 24 26.0784 24H1.92157C1.41194 24 0.923179 23.7942 0.562815 23.4278C0.202451 23.0615 0 22.5646 0 22.0465V1.95349C0 1.43539 0.202451 0.938514 0.562815 0.572164C0.923179 0.205813 1.41194 0 1.92157 0H26.0784C26.5881 0 27.0768 0.205813 27.4372 0.572164C27.7976 0.938514 28 1.43539 28 1.95349ZM26.3529 1.95349C26.3529 1.87947 26.324 1.80849 26.2725 1.75616C26.2211 1.70382 26.1512 1.67442 26.0784 1.67442H1.92157C1.84876 1.67442 1.77894 1.70382 1.72746 1.75616C1.67598 1.80849 1.64706 1.87947 1.64706 1.95349V22.0465C1.64706 22.1205 1.67598 22.1915 1.72746 22.2438C1.77894 22.2962 1.84876 22.3256 1.92157 22.3256H26.0784C26.1512 22.3256 26.2211 22.2962 26.2725 22.2438C26.324 22.1915 26.3529 22.1205 26.3529 22.0465V1.95349ZM14.7975 17.3735C14.8521 17.5885 14.8204 17.8168 14.7095 18.008C14.5985 18.1993 14.4174 18.338 14.2059 18.3935C13.9944 18.449 13.7699 18.4168 13.5817 18.304C13.3935 18.1913 13.2572 18.0071 13.2026 17.7921C12.8114 16.2391 11.2659 15.0698 9.60784 15.0698C7.9498 15.0698 6.40569 16.2391 6.01314 17.7907C5.95853 18.0057 5.82215 18.1899 5.63399 18.3026C5.44583 18.4154 5.2213 18.4476 5.0098 18.3921C4.79831 18.3366 4.61716 18.1979 4.50622 18.0066C4.39528 17.8154 4.36363 17.5871 4.41824 17.3721C4.60272 16.6783 4.92405 16.0298 5.36268 15.4661C5.80131 14.9024 6.34809 14.4352 6.9698 14.093C6.32041 13.5419 5.85373 12.8009 5.63323 11.9706C5.41273 11.1404 5.44911 10.2613 5.73742 9.45278C6.02572 8.6443 6.55197 7.94571 7.2446 7.452C7.93722 6.95829 8.76261 6.69343 9.60853 6.69343C10.4544 6.69343 11.2798 6.95829 11.9725 7.452C12.6651 7.94571 13.1913 8.6443 13.4796 9.45278C13.768 10.2613 13.8043 11.1404 13.5838 11.9706C13.3633 12.8009 12.8966 13.5419 12.2473 14.093C12.8689 14.4355 13.4155 14.903 13.8539 15.4669C14.2923 16.0309 14.6133 16.6795 14.7975 17.3735ZM9.60784 13.3953C10.0965 13.3953 10.5741 13.248 10.9804 12.9721C11.3867 12.6961 11.7034 12.3038 11.8904 11.8449C12.0774 11.3859 12.1263 10.8809 12.031 10.3937C11.9356 9.90652 11.7003 9.45899 11.3548 9.10773C11.0093 8.75647 10.5691 8.51727 10.0898 8.42035C9.61058 8.32344 9.11383 8.37318 8.66239 8.56328C8.21095 8.75338 7.8251 9.0753 7.55362 9.48834C7.28215 9.90137 7.13726 10.387 7.13726 10.8837C7.13726 11.5498 7.39755 12.1887 7.86087 12.6597C8.3242 13.1307 8.9526 13.3953 9.60784 13.3953Z" fill="#454545"/>
</svg>
