<svg width="91" height="22" viewBox="0 0 91 22" fill="none" xmlns="http://www.w3.org/2000/svg">
<path d="M10.788 21.336C9.23867 21.336 7.81067 21.0933 6.504 20.608C5.216 20.104 4.08667 19.3947 3.116 18.48C2.164 17.5653 1.41733 16.492 0.876 15.26C0.353333 14.028 0.092 12.6747 0.092 11.2C0.092 9.72533 0.353333 8.372 0.876 7.14C1.41733 5.908 2.17333 4.83467 3.144 3.92C4.11467 3.00533 5.25333 2.30533 6.56 1.82C7.86667 1.316 9.304 1.064 10.872 1.064C12.608 1.064 14.1667 1.35333 15.548 1.932C16.948 2.51067 18.124 3.35067 19.076 4.452L16.164 7.14C15.4547 6.39333 14.68 5.84267 13.84 5.488C13 5.11467 12.0853 4.928 11.096 4.928C10.144 4.928 9.276 5.07733 8.492 5.376C7.708 5.67467 7.02667 6.104 6.448 6.664C5.888 7.224 5.44933 7.88667 5.132 8.652C4.83333 9.41733 4.684 10.2667 4.684 11.2C4.684 12.1147 4.83333 12.9547 5.132 13.72C5.44933 14.4853 5.888 15.1573 6.448 15.736C7.02667 16.296 7.69867 16.7253 8.464 17.024C9.248 17.3227 10.1067 17.472 11.04 17.472C11.936 17.472 12.804 17.332 13.644 17.052C14.5027 16.7533 15.3333 16.2587 16.136 15.568L18.712 18.844C17.648 19.6467 16.4067 20.2627 14.988 20.692C13.588 21.1213 12.188 21.336 10.788 21.336ZM14.568 18.256V10.892H18.712V18.844L14.568 18.256ZM29.7856 21.224C28.1802 21.224 26.7522 20.888 25.5016 20.216C24.2696 19.544 23.2896 18.6293 22.5616 17.472C21.8522 16.296 21.4976 14.9613 21.4976 13.468C21.4976 11.956 21.8522 10.6213 22.5616 9.464C23.2896 8.288 24.2696 7.37333 25.5016 6.72C26.7522 6.048 28.1802 5.712 29.7856 5.712C31.3722 5.712 32.7909 6.048 34.0416 6.72C35.2922 7.37333 36.2722 8.27867 36.9816 9.436C37.6909 10.5933 38.0456 11.9373 38.0456 13.468C38.0456 14.9613 37.6909 16.296 36.9816 17.472C36.2722 18.6293 35.2922 19.544 34.0416 20.216C32.7909 20.888 31.3722 21.224 29.7856 21.224ZM29.7856 17.64C30.5136 17.64 31.1669 17.472 31.7456 17.136C32.3242 16.8 32.7816 16.324 33.1176 15.708C33.4536 15.0733 33.6216 14.3267 33.6216 13.468C33.6216 12.5907 33.4536 11.844 33.1176 11.228C32.7816 10.612 32.3242 10.136 31.7456 9.8C31.1669 9.464 30.5136 9.296 29.7856 9.296C29.0576 9.296 28.4042 9.464 27.8256 9.8C27.2469 10.136 26.7802 10.612 26.4256 11.228C26.0896 11.844 25.9216 12.5907 25.9216 13.468C25.9216 14.3267 26.0896 15.0733 26.4256 15.708C26.7802 16.324 27.2469 16.8 27.8256 17.136C28.4042 17.472 29.0576 17.64 29.7856 17.64ZM48.1332 21.224C46.5279 21.224 45.0999 20.888 43.8492 20.216C42.6172 19.544 41.6372 18.6293 40.9092 17.472C40.1999 16.296 39.8452 14.9613 39.8452 13.468C39.8452 11.956 40.1999 10.6213 40.9092 9.464C41.6372 8.288 42.6172 7.37333 43.8492 6.72C45.0999 6.048 46.5279 5.712 48.1332 5.712C49.7199 5.712 51.1386 6.048 52.3892 6.72C53.6399 7.37333 54.6199 8.27867 55.3292 9.436C56.0386 10.5933 56.3932 11.9373 56.3932 13.468C56.3932 14.9613 56.0386 16.296 55.3292 17.472C54.6199 18.6293 53.6399 19.544 52.3892 20.216C51.1386 20.888 49.7199 21.224 48.1332 21.224ZM48.1332 17.64C48.8612 17.64 49.5146 17.472 50.0932 17.136C50.6719 16.8 51.1292 16.324 51.4652 15.708C51.8012 15.0733 51.9692 14.3267 51.9692 13.468C51.9692 12.5907 51.8012 11.844 51.4652 11.228C51.1292 10.612 50.6719 10.136 50.0932 9.8C49.5146 9.464 48.8612 9.296 48.1332 9.296C47.4052 9.296 46.7519 9.464 46.1732 9.8C45.5946 10.136 45.1279 10.612 44.7732 11.228C44.4372 11.844 44.2692 12.5907 44.2692 13.468C44.2692 14.3267 44.4372 15.0733 44.7732 15.708C45.1279 16.324 45.5946 16.8 46.1732 17.136C46.7519 17.472 47.4052 17.64 48.1332 17.64ZM65.7809 21.224C64.3622 21.224 63.0835 20.9067 61.9449 20.272C60.8062 19.6187 59.9009 18.7133 59.2289 17.556C58.5755 16.3987 58.2489 15.036 58.2489 13.468C58.2489 11.8813 58.5755 10.5093 59.2289 9.352C59.9009 8.19467 60.8062 7.29867 61.9449 6.664C63.0835 6.02933 64.3622 5.712 65.7809 5.712C67.0502 5.712 68.1609 5.992 69.1129 6.552C70.0649 7.112 70.8022 7.96133 71.3249 9.1C71.8475 10.2387 72.1089 11.6947 72.1089 13.468C72.1089 15.2227 71.8569 16.6787 71.3529 17.836C70.8489 18.9747 70.1209 19.824 69.1689 20.384C68.2355 20.944 67.1062 21.224 65.7809 21.224ZM66.5369 17.64C67.2462 17.64 67.8902 17.472 68.4689 17.136C69.0475 16.8 69.5049 16.324 69.8409 15.708C70.1955 15.0733 70.3729 14.3267 70.3729 13.468C70.3729 12.5907 70.1955 11.844 69.8409 11.228C69.5049 10.612 69.0475 10.136 68.4689 9.8C67.8902 9.464 67.2462 9.296 66.5369 9.296C65.8089 9.296 65.1555 9.464 64.5769 9.8C63.9982 10.136 63.5315 10.612 63.1769 11.228C62.8409 11.844 62.6729 12.5907 62.6729 13.468C62.6729 14.3267 62.8409 15.0733 63.1769 15.708C63.5315 16.324 63.9982 16.8 64.5769 17.136C65.1555 17.472 65.8089 17.64 66.5369 17.64ZM70.4849 21V17.92L70.5689 13.44L70.2889 8.988V0.223999H74.6569V21H70.4849ZM83.7676 21.224C82.4796 21.224 81.2383 21.0747 80.0436 20.776C78.8676 20.4587 77.9343 20.0667 77.2436 19.6L78.6996 16.464C79.3903 16.8933 80.2023 17.248 81.1356 17.528C82.0876 17.7893 83.0209 17.92 83.9356 17.92C84.9436 17.92 85.6529 17.7987 86.0636 17.556C86.4929 17.3133 86.7076 16.9773 86.7076 16.548C86.7076 16.1933 86.5396 15.932 86.2036 15.764C85.8863 15.5773 85.4569 15.4373 84.9156 15.344C84.3743 15.2507 83.7769 15.1573 83.1236 15.064C82.4889 14.9707 81.8449 14.8493 81.1916 14.7C80.5383 14.532 79.9409 14.2893 79.3996 13.972C78.8583 13.6547 78.4196 13.2253 78.0836 12.684C77.7663 12.1427 77.6076 11.4427 77.6076 10.584C77.6076 9.632 77.8783 8.792 78.4196 8.064C78.9796 7.336 79.7823 6.76667 80.8276 6.356C81.8729 5.92667 83.1236 5.712 84.5796 5.712C85.6063 5.712 86.6516 5.824 87.7156 6.048C88.7796 6.272 89.6663 6.59867 90.3756 7.028L88.9196 10.136C88.1916 9.70667 87.4543 9.41733 86.7076 9.268C85.9796 9.1 85.2703 9.016 84.5796 9.016C83.6089 9.016 82.8996 9.14667 82.4516 9.408C82.0036 9.66933 81.7796 10.0053 81.7796 10.416C81.7796 10.7893 81.9383 11.0693 82.2556 11.256C82.5916 11.4427 83.0303 11.592 83.5716 11.704C84.1129 11.816 84.7009 11.9187 85.3356 12.012C85.9889 12.0867 86.6423 12.208 87.2956 12.376C87.9489 12.544 88.5369 12.7867 89.0596 13.104C89.6009 13.4027 90.0396 13.8227 90.3756 14.364C90.7116 14.8867 90.8796 15.5773 90.8796 16.436C90.8796 17.3693 90.5996 18.2 90.0396 18.928C89.4796 19.6373 88.6676 20.1973 87.6036 20.608C86.5583 21.0187 85.2796 21.224 83.7676 21.224Z" fill="#091D9E"/>
</svg>
